
<svg version="1.1" xmlns="http://www.w3.org/2000/svg" xmlns:xlink="http://www.w3.org/1999/xlink" width="400" height="400" viewBox="0, 0, 400,400"><g><path id="path0" d="M197.780 0.380 C 197.571 0.589,193.710 0.954,189.200 1.191 C 184.690 1.428,179.560 1.789,177.800 1.993 C 173.522 2.490,168.874 3.120,167.400 3.402 C 166.740 3.529,165.120 3.820,163.800 4.049 C 157.890 5.073,149.433 6.959,147.681 7.642 C 147.176 7.839,146.331 8.000,145.805 8.000 C 145.278 8.000,144.736 8.180,144.600 8.400 C 144.464 8.620,143.834 8.800,143.200 8.800 C 142.566 8.800,141.936 8.980,141.800 9.200 C 141.664 9.420,141.124 9.600,140.600 9.600 C 140.076 9.600,139.536 9.780,139.400 10.000 C 139.264 10.220,138.724 10.400,138.200 10.400 C 137.676 10.400,137.136 10.580,137.000 10.800 C 136.864 11.020,136.313 11.200,135.776 11.200 C 135.239 11.200,134.800 11.380,134.800 11.600 C 134.800 11.820,134.361 12.000,133.824 12.000 C 133.287 12.000,132.736 12.180,132.600 12.400 C 132.464 12.620,131.924 12.800,131.400 12.800 C 130.876 12.800,130.336 12.980,130.200 13.200 C 130.064 13.420,129.603 13.600,129.176 13.600 C 128.749 13.600,128.400 13.741,128.400 13.913 C 128.400 14.085,127.545 14.475,126.500 14.780 C 125.455 15.085,124.330 15.477,124.000 15.651 C 123.670 15.825,122.140 16.532,120.600 17.221 C 119.060 17.910,115.820 19.416,113.400 20.568 C 110.980 21.720,108.415 22.917,107.700 23.229 C 106.985 23.540,106.400 23.931,106.400 24.098 C 106.400 24.264,106.040 24.400,105.600 24.400 C 105.160 24.400,104.800 24.546,104.800 24.725 C 104.800 24.904,104.170 25.298,103.400 25.600 C 102.630 25.902,102.000 26.275,102.000 26.428 C 102.000 26.581,101.685 26.807,101.300 26.929 C 100.615 27.146,98.396 28.404,98.000 28.800 C 97.890 28.910,97.395 29.225,96.900 29.500 C 94.665 30.741,94.192 31.043,93.445 31.700 C 93.007 32.085,92.495 32.400,92.308 32.400 C 92.120 32.400,91.749 32.583,91.483 32.806 C 91.217 33.029,90.370 33.628,89.600 34.137 C 85.826 36.633,78.531 41.826,78.000 42.395 C 77.670 42.749,76.783 43.470,76.029 43.997 C 75.274 44.525,74.014 45.529,73.229 46.230 C 72.443 46.931,70.800 48.381,69.579 49.452 C 59.137 58.608,58.608 59.137,49.452 69.579 C 48.381 70.800,46.931 72.443,46.230 73.229 C 45.529 74.014,44.525 75.274,43.997 76.029 C 43.470 76.783,42.749 77.670,42.395 78.000 C 41.826 78.531,36.633 85.826,34.137 89.600 C 33.628 90.370,33.029 91.217,32.806 91.483 C 32.583 91.749,32.400 92.120,32.400 92.308 C 32.400 92.495,32.085 93.007,31.700 93.445 C 31.049 94.185,30.537 94.989,29.438 97.000 C 29.197 97.440,28.910 97.890,28.800 98.000 C 28.404 98.396,27.146 100.615,26.929 101.300 C 26.807 101.685,26.581 102.000,26.428 102.000 C 26.275 102.000,25.902 102.630,25.600 103.400 C 25.298 104.170,24.904 104.800,24.725 104.800 C 24.546 104.800,24.400 105.160,24.400 105.600 C 24.400 106.040,24.264 106.400,24.098 106.400 C 23.931 106.400,23.540 106.985,23.229 107.700 C 22.917 108.415,21.720 110.980,20.568 113.400 C 19.416 115.820,17.910 119.060,17.221 120.600 C 16.532 122.140,15.825 123.670,15.651 124.000 C 15.477 124.330,15.085 125.455,14.780 126.500 C 14.475 127.545,14.085 128.400,13.913 128.400 C 13.741 128.400,13.600 128.749,13.600 129.176 C 13.600 129.603,13.420 130.064,13.200 130.200 C 12.980 130.336,12.800 130.876,12.800 131.400 C 12.800 131.924,12.620 132.464,12.400 132.600 C 12.180 132.736,12.000 133.287,12.000 133.824 C 12.000 134.361,11.820 134.800,11.600 134.800 C 11.380 134.800,11.200 135.239,11.200 135.776 C 11.200 136.313,11.020 136.864,10.800 137.000 C 10.580 137.136,10.400 137.676,10.400 138.200 C 10.400 138.724,10.220 139.264,10.000 139.400 C 9.780 139.536,9.600 140.076,9.600 140.600 C 9.600 141.124,9.420 141.664,9.200 141.800 C 8.980 141.936,8.800 142.566,8.800 143.200 C 8.800 143.834,8.620 144.464,8.400 144.600 C 8.180 144.736,8.000 145.278,8.000 145.805 C 8.000 146.331,7.839 147.176,7.642 147.681 C 6.959 149.433,5.073 157.890,4.049 163.800 C 3.820 165.120,3.529 166.740,3.402 167.400 C 3.120 168.874,2.490 173.522,1.993 177.800 C 1.789 179.560,1.428 184.690,1.191 189.200 C 0.954 193.710,0.589 197.571,0.380 197.780 C -0.117 198.277,-0.112 201.728,0.387 202.227 C 0.599 202.439,0.961 206.300,1.190 210.807 C 1.419 215.313,1.778 220.440,1.989 222.200 C 2.957 230.307,3.679 234.945,4.784 240.178 C 5.205 242.170,5.755 244.790,6.007 246.000 C 6.611 248.908,7.201 251.190,7.642 252.319 C 7.839 252.824,8.000 253.669,8.000 254.195 C 8.000 254.722,8.180 255.264,8.400 255.400 C 8.620 255.536,8.800 256.166,8.800 256.800 C 8.800 257.434,8.980 258.064,9.200 258.200 C 9.420 258.336,9.600 258.876,9.600 259.400 C 9.600 259.924,9.780 260.464,10.000 260.600 C 10.220 260.736,10.400 261.276,10.400 261.800 C 10.400 262.324,10.580 262.864,10.800 263.000 C 11.020 263.136,11.200 263.599,11.200 264.029 C 11.200 264.459,11.380 265.168,11.600 265.605 C 11.820 266.042,12.180 266.758,12.400 267.195 C 12.620 267.632,12.800 268.264,12.800 268.600 C 12.800 268.936,12.959 269.523,13.153 269.905 C 13.523 270.632,14.291 272.435,14.813 273.800 C 15.695 276.108,17.655 280.467,20.571 286.600 C 21.721 289.020,22.917 291.585,23.229 292.300 C 23.540 293.015,23.931 293.600,24.098 293.600 C 24.264 293.600,24.400 293.960,24.400 294.400 C 24.400 294.840,24.546 295.200,24.725 295.200 C 24.904 295.200,25.298 295.830,25.600 296.600 C 25.902 297.370,26.275 298.000,26.428 298.000 C 26.581 298.000,26.807 298.315,26.929 298.700 C 27.146 299.385,28.404 301.604,28.800 302.000 C 28.910 302.110,29.225 302.605,29.500 303.100 C 30.741 305.335,31.043 305.808,31.700 306.555 C 32.085 306.993,32.400 307.505,32.400 307.692 C 32.400 307.880,32.587 308.251,32.815 308.517 C 33.043 308.783,33.988 310.147,34.915 311.549 C 36.882 314.523,37.153 314.917,39.786 318.612 C 40.878 320.146,42.057 321.670,42.405 322.000 C 42.753 322.330,43.471 323.230,44.000 324.000 C 44.529 324.770,45.244 325.670,45.588 326.000 C 45.933 326.330,47.020 327.590,48.005 328.800 C 48.990 330.010,49.977 331.199,50.198 331.443 C 50.419 331.686,52.040 333.475,53.800 335.417 C 59.309 341.498,63.548 345.544,70.600 351.452 C 72.140 352.742,73.670 354.077,74.000 354.418 C 74.330 354.759,75.230 355.471,76.000 356.000 C 76.770 356.529,77.670 357.249,78.000 357.600 C 78.330 357.951,79.230 358.671,80.000 359.200 C 80.770 359.729,81.490 360.266,81.600 360.395 C 81.710 360.523,82.790 361.287,84.000 362.092 C 88.537 365.113,91.015 366.802,91.483 367.195 C 91.749 367.418,92.120 367.600,92.308 367.600 C 92.495 367.600,93.007 367.915,93.445 368.300 C 94.192 368.957,94.665 369.259,96.900 370.500 C 97.395 370.775,97.890 371.090,98.000 371.200 C 98.396 371.596,100.615 372.854,101.300 373.071 C 101.685 373.193,102.000 373.419,102.000 373.572 C 102.000 373.725,102.630 374.098,103.400 374.400 C 104.170 374.702,104.800 375.096,104.800 375.275 C 104.800 375.454,105.145 375.600,105.567 375.600 C 105.988 375.600,106.393 375.745,106.467 375.921 C 106.638 376.335,112.931 379.396,120.600 382.797 C 123.230 383.964,125.213 384.810,126.200 385.187 C 127.565 385.709,129.368 386.477,130.095 386.847 C 130.477 387.041,131.064 387.200,131.400 387.200 C 131.993 387.200,132.416 387.366,134.295 388.338 C 134.787 388.592,135.541 388.800,135.971 388.800 C 136.401 388.800,136.864 388.980,137.000 389.200 C 137.136 389.420,137.676 389.600,138.200 389.600 C 138.724 389.600,139.264 389.780,139.400 390.000 C 139.536 390.220,140.076 390.400,140.600 390.400 C 141.124 390.400,141.664 390.580,141.800 390.800 C 141.936 391.020,142.566 391.200,143.200 391.200 C 143.834 391.200,144.464 391.380,144.600 391.600 C 144.736 391.820,145.366 392.000,146.000 392.000 C 146.634 392.000,147.264 392.180,147.400 392.400 C 147.536 392.620,148.141 392.800,148.744 392.800 C 149.347 392.800,150.011 392.962,150.220 393.159 C 150.429 393.356,151.320 393.612,152.200 393.726 C 153.080 393.841,154.610 394.133,155.600 394.374 C 164.584 396.567,176.654 398.176,188.800 398.798 C 193.310 399.029,197.313 399.394,197.695 399.609 C 198.591 400.113,201.409 400.113,202.305 399.609 C 202.687 399.394,206.690 399.031,211.200 398.801 C 219.104 398.398,221.695 398.165,228.600 397.238 C 232.233 396.749,241.697 395.034,244.400 394.374 C 245.390 394.133,246.920 393.841,247.800 393.726 C 248.680 393.612,249.571 393.356,249.780 393.159 C 249.989 392.962,250.653 392.800,251.256 392.800 C 251.859 392.800,252.464 392.620,252.600 392.400 C 252.736 392.180,253.366 392.000,254.000 392.000 C 254.634 392.000,255.264 391.820,255.400 391.600 C 255.536 391.380,256.166 391.200,256.800 391.200 C 257.434 391.200,258.064 391.020,258.200 390.800 C 258.336 390.580,258.876 390.400,259.400 390.400 C 259.924 390.400,260.464 390.220,260.600 390.000 C 260.736 389.780,261.276 389.600,261.800 389.600 C 262.324 389.600,262.864 389.420,263.000 389.200 C 263.136 388.980,263.676 388.800,264.200 388.800 C 264.724 388.800,265.264 388.620,265.400 388.400 C 265.536 388.180,266.087 388.000,266.624 388.000 C 267.161 388.000,267.600 387.820,267.600 387.600 C 267.600 387.380,267.962 387.200,268.405 387.200 C 268.848 387.200,269.523 387.041,269.905 386.847 C 270.550 386.519,271.413 386.154,273.700 385.241 C 274.633 384.868,276.515 384.070,279.100 382.950 C 283.538 381.027,294.878 375.585,295.200 375.224 C 295.310 375.100,295.940 374.729,296.600 374.400 C 297.260 374.071,297.890 373.711,298.000 373.601 C 298.110 373.490,298.560 373.203,299.000 372.962 C 300.902 371.922,301.813 371.387,302.000 371.200 C 302.396 370.804,304.615 369.546,305.300 369.329 C 305.685 369.207,306.000 368.970,306.000 368.802 C 306.000 368.634,306.540 368.273,307.200 368.000 C 307.860 367.727,308.400 367.357,308.400 367.178 C 308.400 367.000,308.746 366.744,309.169 366.610 C 309.808 366.407,316.865 361.646,318.200 360.517 C 318.420 360.331,319.230 359.742,320.000 359.208 C 320.770 358.675,321.670 357.951,322.000 357.600 C 322.330 357.249,323.230 356.529,324.000 356.000 C 324.770 355.471,325.670 354.756,326.000 354.412 C 326.330 354.067,327.590 352.980,328.800 351.995 C 330.010 351.010,331.197 350.023,331.438 349.802 C 331.679 349.581,333.290 348.140,335.019 346.600 C 339.014 343.039,343.039 339.014,346.600 335.019 C 348.140 333.290,349.581 331.679,349.802 331.438 C 350.023 331.197,351.010 330.010,351.995 328.800 C 352.980 327.590,354.067 326.330,354.412 326.000 C 354.756 325.670,355.471 324.770,356.000 324.000 C 356.529 323.230,357.249 322.330,357.600 322.000 C 357.951 321.670,358.675 320.770,359.208 320.000 C 359.742 319.230,360.331 318.420,360.517 318.200 C 361.646 316.865,366.407 309.808,366.610 309.169 C 366.744 308.746,367.000 308.400,367.178 308.400 C 367.357 308.400,367.727 307.860,368.000 307.200 C 368.273 306.540,368.634 306.000,368.802 306.000 C 368.970 306.000,369.207 305.685,369.329 305.300 C 369.546 304.615,370.804 302.396,371.200 302.000 C 371.310 301.890,371.625 301.395,371.900 300.900 C 372.175 300.405,372.625 299.595,372.900 299.100 C 373.175 298.605,373.490 298.110,373.601 298.000 C 373.711 297.890,374.071 297.260,374.400 296.600 C 374.729 295.940,375.100 295.310,375.224 295.200 C 375.585 294.878,381.027 283.538,382.950 279.100 C 384.070 276.515,384.868 274.633,385.241 273.700 C 386.154 271.413,386.519 270.550,386.847 269.905 C 387.041 269.523,387.200 268.848,387.200 268.405 C 387.200 267.962,387.380 267.600,387.600 267.600 C 387.820 267.600,388.000 267.161,388.000 266.624 C 388.000 266.087,388.180 265.536,388.400 265.400 C 388.620 265.264,388.800 264.724,388.800 264.200 C 388.800 263.676,388.980 263.136,389.200 263.000 C 389.420 262.864,389.600 262.324,389.600 261.800 C 389.600 261.276,389.780 260.736,390.000 260.600 C 390.220 260.464,390.400 259.924,390.400 259.400 C 390.400 258.876,390.580 258.336,390.800 258.200 C 391.020 258.064,391.200 257.434,391.200 256.800 C 391.200 256.166,391.380 255.536,391.600 255.400 C 391.820 255.264,392.000 254.634,392.000 254.000 C 392.000 253.366,392.180 252.736,392.400 252.600 C 392.620 252.464,392.800 251.859,392.800 251.256 C 392.800 250.653,392.962 249.989,393.159 249.780 C 393.356 249.571,393.612 248.680,393.726 247.800 C 393.841 246.920,394.133 245.390,394.374 244.400 C 395.034 241.697,396.749 232.233,397.238 228.600 C 398.165 221.695,398.398 219.104,398.801 211.200 C 399.031 206.690,399.394 202.687,399.609 202.305 C 400.113 201.410,400.113 198.591,399.610 197.695 C 399.395 197.313,399.035 193.490,398.808 189.200 C 398.398 181.440,397.988 176.961,397.232 172.000 C 397.014 170.570,396.650 168.140,396.422 166.600 C 395.847 162.698,394.914 159.857,393.773 158.530 C 393.238 157.908,392.801 157.289,392.800 157.153 C 392.799 156.653,389.469 154.722,387.663 154.174 C 383.592 152.939,379.143 153.920,376.200 156.702 C 374.566 158.246,374.118 158.891,372.560 161.936 C 370.306 166.343,365.809 170.704,361.400 172.756 C 360.300 173.269,359.087 173.848,358.705 174.044 C 358.323 174.240,357.569 174.400,357.029 174.400 C 356.489 174.400,355.936 174.580,355.800 174.800 C 355.470 175.333,344.530 175.333,344.200 174.800 C 344.064 174.580,343.434 174.400,342.800 174.400 C 342.166 174.400,341.536 174.220,341.400 174.000 C 341.264 173.780,340.803 173.600,340.376 173.600 C 339.949 173.600,339.600 173.420,339.600 173.200 C 339.600 172.980,339.326 172.800,338.991 172.800 C 335.766 172.800,326.400 162.367,326.400 158.775 C 326.400 158.349,326.220 158.000,326.000 158.000 C 325.780 158.000,325.600 157.747,325.600 157.438 C 325.600 155.610,322.014 151.289,319.552 150.151 C 316.750 148.856,312.272 148.313,311.380 149.161 C 310.010 150.463,289.590 150.463,288.220 149.161 C 288.011 148.963,287.347 148.800,286.744 148.800 C 286.141 148.800,285.536 148.620,285.400 148.400 C 285.264 148.180,284.801 148.000,284.371 148.000 C 283.941 148.000,283.277 147.841,282.895 147.647 C 282.513 147.452,281.750 147.114,281.200 146.896 C 278.755 145.923,274.800 143.850,274.800 143.540 C 274.800 143.353,274.440 143.200,274.000 143.200 C 273.560 143.200,273.200 143.020,273.200 142.800 C 273.200 142.580,272.964 142.400,272.675 142.400 C 272.387 142.400,271.802 142.080,271.375 141.689 C 270.949 141.298,269.970 140.544,269.200 140.013 C 267.389 138.765,261.235 132.611,259.987 130.800 C 259.456 130.030,258.702 129.051,258.311 128.625 C 257.920 128.198,257.600 127.613,257.600 127.325 C 257.600 127.036,257.420 126.800,257.200 126.800 C 256.980 126.800,256.800 126.440,256.800 126.000 C 256.800 125.560,256.647 125.200,256.460 125.200 C 256.041 125.200,253.642 120.360,252.396 117.000 C 252.233 116.560,251.897 115.697,251.650 115.081 C 251.402 114.466,251.200 113.557,251.200 113.061 C 251.200 112.566,251.037 111.989,250.839 111.780 C 249.837 110.726,249.492 95.357,250.372 91.000 C 251.117 87.311,251.336 83.576,250.836 83.076 C 250.596 82.836,250.400 82.303,250.400 81.892 C 250.400 79.663,244.912 74.400,242.588 74.400 C 242.265 74.400,242.000 74.220,242.000 74.000 C 242.000 73.780,241.651 73.600,241.225 73.600 C 239.494 73.600,233.493 69.718,231.085 67.040 C 229.506 65.283,227.200 61.694,227.200 60.992 C 227.200 60.667,227.020 60.400,226.800 60.400 C 226.580 60.400,226.400 60.051,226.400 59.624 C 226.400 59.197,226.220 58.736,226.000 58.600 C 225.780 58.464,225.600 57.733,225.600 56.976 C 225.600 56.219,225.420 55.600,225.200 55.600 C 224.952 55.600,224.800 53.475,224.800 50.024 C 224.800 46.737,224.964 44.346,225.200 44.200 C 225.420 44.064,225.600 43.511,225.600 42.971 C 225.600 42.431,225.759 41.677,225.953 41.295 C 226.148 40.913,226.549 40.060,226.844 39.400 C 227.803 37.261,230.735 32.988,232.085 31.763 C 233.787 30.219,237.023 28.000,237.572 28.000 C 237.807 28.000,238.000 27.820,238.000 27.600 C 238.000 27.380,238.360 27.200,238.800 27.200 C 239.240 27.200,239.600 27.050,239.600 26.868 C 239.600 26.685,240.094 26.280,240.697 25.968 C 244.306 24.101,246.595 19.799,246.314 15.413 C 245.858 8.310,241.993 4.865,233.000 3.546 C 231.460 3.320,229.030 2.961,227.600 2.749 C 222.423 1.980,218.454 1.615,210.600 1.189 C 206.200 0.950,202.429 0.585,202.220 0.377 C 201.725 -0.114,198.272 -0.112,197.780 0.380 M207.200 25.210 C 207.200 25.435,206.595 26.830,205.855 28.310 C 205.116 29.789,204.293 31.720,204.027 32.600 C 203.762 33.480,203.393 34.560,203.208 35.000 C 200.703 40.969,200.196 51.041,201.921 60.600 C 202.625 64.497,207.043 75.277,208.397 76.400 C 208.530 76.510,209.077 77.230,209.614 78.000 C 211.232 80.323,211.672 80.824,215.045 84.176 C 218.982 88.088,220.293 89.227,221.712 89.968 C 222.311 90.280,222.800 90.685,222.800 90.868 C 222.800 91.050,223.025 91.200,223.300 91.200 C 225.466 91.203,227.221 97.419,225.533 99.107 C 225.177 99.463,225.177 99.945,225.533 101.134 C 225.790 101.991,226.000 104.416,226.000 106.523 C 226.000 108.645,226.178 110.463,226.400 110.600 C 226.620 110.736,226.800 111.816,226.800 113.000 C 226.800 114.184,226.980 115.264,227.200 115.400 C 227.420 115.536,227.600 116.256,227.600 117.000 C 227.600 117.744,227.780 118.464,228.000 118.600 C 228.220 118.736,228.400 119.366,228.400 120.000 C 228.400 120.634,228.580 121.264,228.800 121.400 C 229.020 121.536,229.200 122.051,229.200 122.544 C 229.200 123.037,229.343 123.611,229.518 123.820 C 229.693 124.029,230.066 124.920,230.347 125.800 C 230.627 126.680,231.364 128.480,231.983 129.800 C 232.603 131.120,233.355 132.743,233.655 133.407 C 234.434 135.132,239.216 143.064,239.980 143.898 C 240.333 144.284,241.064 145.230,241.604 146.000 C 242.145 146.770,243.130 147.965,243.793 148.655 C 244.457 149.345,245.820 150.785,246.822 151.855 C 248.629 153.783,252.958 157.659,254.565 158.786 C 255.024 159.108,255.716 159.662,256.102 160.017 C 258.455 162.182,269.865 168.254,274.200 169.648 C 275.080 169.932,275.971 170.307,276.180 170.482 C 276.389 170.657,276.963 170.800,277.456 170.800 C 277.949 170.800,278.464 170.980,278.600 171.200 C 278.736 171.420,279.366 171.600,280.000 171.600 C 280.634 171.600,281.264 171.780,281.400 172.000 C 281.536 172.220,282.256 172.400,283.000 172.400 C 283.744 172.400,284.464 172.580,284.600 172.800 C 284.736 173.020,285.791 173.200,286.944 173.200 C 288.097 173.200,289.211 173.366,289.420 173.568 C 290.040 174.169,299.113 174.540,303.924 174.162 C 306.922 173.927,308.798 174.903,308.800 176.700 C 308.800 176.975,308.950 177.200,309.132 177.200 C 309.315 177.200,309.720 177.689,310.032 178.288 C 310.774 179.708,311.912 181.015,315.835 184.953 C 319.237 188.368,319.744 188.815,322.000 190.386 C 322.770 190.923,323.490 191.460,323.600 191.581 C 323.918 191.929,325.584 192.842,328.557 194.297 C 339.796 199.795,353.767 200.691,365.643 196.674 C 367.316 196.109,370.001 195.005,371.609 194.223 C 373.217 193.440,374.688 192.800,374.878 192.800 C 375.338 192.800,374.984 214.414,374.449 219.000 C 374.020 222.672,373.570 226.010,372.829 231.000 C 372.402 233.875,371.049 240.464,370.447 242.600 C 370.260 243.260,369.885 244.610,369.612 245.600 C 369.340 246.590,368.955 247.813,368.758 248.319 C 368.561 248.824,368.400 249.669,368.400 250.195 C 368.400 250.722,368.220 251.264,368.000 251.400 C 367.780 251.536,367.600 252.076,367.600 252.600 C 367.600 253.124,367.420 253.664,367.200 253.800 C 366.980 253.936,366.800 254.476,366.800 255.000 C 366.800 255.524,366.620 256.064,366.400 256.200 C 366.180 256.336,366.000 256.876,366.000 257.400 C 366.000 257.924,365.856 258.442,365.679 258.551 C 365.503 258.660,365.110 259.661,364.807 260.775 C 364.504 261.889,364.108 262.800,363.928 262.800 C 363.747 262.800,363.600 263.072,363.600 263.405 C 363.600 263.738,363.441 264.323,363.247 264.705 C 363.052 265.087,362.671 265.940,362.400 266.600 C 362.129 267.260,361.748 268.113,361.553 268.495 C 361.359 268.877,361.200 269.462,361.200 269.795 C 361.200 270.128,361.020 270.400,360.800 270.400 C 360.580 270.400,360.400 270.653,360.400 270.962 C 360.400 271.271,360.061 272.216,359.648 273.062 C 356.671 279.147,353.248 285.777,352.037 287.805 C 351.247 289.128,350.345 290.703,350.032 291.305 C 349.720 291.907,349.315 292.400,349.132 292.400 C 348.950 292.400,348.800 292.586,348.800 292.813 C 348.800 293.323,343.196 301.749,342.734 301.933 C 342.550 302.007,342.400 302.322,342.400 302.633 C 342.400 302.945,342.259 303.200,342.086 303.200 C 341.914 303.200,341.457 303.733,341.072 304.385 C 340.687 305.037,340.148 305.802,339.874 306.085 C 339.599 306.368,338.489 307.770,337.406 309.200 C 336.323 310.630,335.158 312.070,334.817 312.400 C 334.476 312.730,333.484 313.900,332.614 315.000 C 330.561 317.593,317.593 330.561,315.000 332.614 C 313.900 333.484,312.730 334.476,312.400 334.817 C 312.070 335.158,310.630 336.323,309.200 337.406 C 307.770 338.489,306.368 339.599,306.085 339.874 C 305.802 340.148,305.037 340.687,304.385 341.072 C 303.733 341.457,303.200 341.914,303.200 342.086 C 303.200 342.259,302.945 342.400,302.633 342.400 C 302.322 342.400,302.007 342.550,301.933 342.734 C 301.749 343.196,293.323 348.800,292.813 348.800 C 292.586 348.800,292.400 348.950,292.400 349.132 C 292.400 349.315,291.907 349.720,291.305 350.032 C 290.703 350.345,289.128 351.247,287.805 352.037 C 285.777 353.248,279.147 356.671,273.062 359.648 C 272.216 360.061,271.271 360.400,270.962 360.400 C 270.653 360.400,270.400 360.580,270.400 360.800 C 270.400 361.020,270.128 361.200,269.795 361.200 C 269.462 361.200,268.877 361.359,268.495 361.553 C 268.113 361.748,267.260 362.129,266.600 362.400 C 265.940 362.671,265.087 363.052,264.705 363.247 C 264.323 363.441,263.738 363.600,263.405 363.600 C 263.072 363.600,262.800 363.747,262.800 363.928 C 262.800 364.108,261.889 364.504,260.775 364.807 C 259.661 365.110,258.660 365.503,258.551 365.679 C 258.442 365.856,257.924 366.000,257.400 366.000 C 256.876 366.000,256.336 366.180,256.200 366.400 C 256.064 366.620,255.524 366.800,255.000 366.800 C 254.476 366.800,253.936 366.980,253.800 367.200 C 253.664 367.420,253.124 367.600,252.600 367.600 C 252.076 367.600,251.536 367.780,251.400 368.000 C 251.264 368.220,250.722 368.400,250.195 368.400 C 249.669 368.400,248.824 368.561,248.319 368.758 C 247.813 368.955,246.590 369.340,245.600 369.612 C 244.610 369.885,243.260 370.260,242.600 370.447 C 240.464 371.049,233.875 372.402,231.000 372.829 C 218.084 374.746,216.017 374.883,200.000 374.883 C 183.983 374.883,181.916 374.746,169.000 372.829 C 166.125 372.402,159.536 371.049,157.400 370.447 C 156.740 370.260,155.390 369.885,154.400 369.612 C 153.410 369.340,152.187 368.955,151.681 368.758 C 151.176 368.561,150.331 368.400,149.805 368.400 C 149.278 368.400,148.736 368.220,148.600 368.000 C 148.464 367.780,147.924 367.600,147.400 367.600 C 146.876 367.600,146.336 367.420,146.200 367.200 C 146.064 366.980,145.524 366.800,145.000 366.800 C 144.476 366.800,143.936 366.620,143.800 366.400 C 143.664 366.180,143.124 366.000,142.600 366.000 C 142.076 366.000,141.536 365.820,141.400 365.600 C 141.264 365.380,140.891 365.200,140.572 365.200 C 140.253 365.200,139.138 364.822,138.096 364.360 C 137.053 363.898,135.795 363.358,135.300 363.160 C 132.951 362.220,132.147 361.880,131.505 361.553 C 131.123 361.359,130.538 361.200,130.205 361.200 C 129.872 361.200,129.600 361.020,129.600 360.800 C 129.600 360.580,129.240 360.400,128.800 360.400 C 128.360 360.400,128.000 360.220,128.000 360.000 C 128.000 359.780,127.728 359.600,127.395 359.600 C 127.062 359.600,126.477 359.441,126.095 359.246 C 125.713 359.051,123.150 357.768,120.400 356.395 C 115.044 353.721,107.886 349.627,107.667 349.113 C 107.593 348.941,107.362 348.800,107.153 348.800 C 106.666 348.800,98.244 343.177,98.067 342.734 C 97.993 342.550,97.678 342.400,97.367 342.400 C 97.055 342.400,96.800 342.259,96.800 342.086 C 96.800 341.914,96.267 341.457,95.615 341.072 C 94.963 340.687,94.198 340.148,93.915 339.874 C 93.632 339.599,92.230 338.489,90.800 337.406 C 89.370 336.323,87.930 335.159,87.599 334.818 C 87.269 334.478,85.829 333.216,84.399 332.014 C 81.663 329.712,71.180 319.342,68.797 316.580 C 65.422 312.666,63.597 310.466,62.177 308.600 C 61.340 307.500,60.424 306.368,60.141 306.085 C 59.859 305.802,59.313 305.037,58.928 304.385 C 58.543 303.733,58.086 303.200,57.914 303.200 C 57.741 303.200,57.600 302.945,57.600 302.633 C 57.600 302.322,57.450 302.007,57.266 301.933 C 56.823 301.756,51.200 293.334,51.200 292.847 C 51.200 292.638,51.059 292.407,50.887 292.333 C 50.373 292.114,46.282 284.957,43.610 279.600 C 39.657 271.676,39.600 271.554,39.600 270.962 C 39.600 270.653,39.420 270.400,39.200 270.400 C 38.980 270.400,38.800 270.128,38.800 269.795 C 38.800 269.462,38.641 268.877,38.447 268.495 C 38.120 267.853,37.780 267.049,36.840 264.700 C 36.642 264.205,36.102 262.947,35.640 261.904 C 35.178 260.862,34.800 259.747,34.800 259.428 C 34.800 259.109,34.620 258.736,34.400 258.600 C 34.180 258.464,34.000 257.924,34.000 257.400 C 34.000 256.876,33.820 256.336,33.600 256.200 C 33.380 256.064,33.200 255.524,33.200 255.000 C 33.200 254.476,33.041 253.949,32.846 253.829 C 32.651 253.708,32.396 253.113,32.279 252.505 C 32.162 251.897,31.871 250.725,31.633 249.900 C 31.395 249.075,31.032 247.815,30.827 247.100 C 30.231 245.024,28.942 239.609,28.422 237.000 C 28.159 235.680,27.776 233.949,27.572 233.154 C 27.367 232.358,27.200 230.974,27.200 230.077 C 27.200 229.181,27.020 228.336,26.800 228.200 C 26.580 228.064,26.400 226.804,26.400 225.400 C 26.400 223.996,26.220 222.736,26.000 222.600 C 25.780 222.464,25.600 220.844,25.600 219.000 C 25.600 217.156,25.420 215.536,25.200 215.400 C 24.653 215.062,24.653 184.938,25.200 184.600 C 25.420 184.464,25.600 182.844,25.600 181.000 C 25.600 179.156,25.780 177.536,26.000 177.400 C 26.220 177.264,26.400 176.004,26.400 174.600 C 26.400 173.196,26.580 171.936,26.800 171.800 C 27.020 171.664,27.200 170.819,27.200 169.923 C 27.200 169.026,27.367 167.642,27.572 166.846 C 27.776 166.051,28.159 164.320,28.422 163.000 C 29.194 159.125,30.390 154.319,31.655 150.000 C 31.881 149.230,32.162 148.103,32.279 147.495 C 32.396 146.887,32.651 146.292,32.846 146.171 C 33.041 146.051,33.200 145.524,33.200 145.000 C 33.200 144.476,33.380 143.936,33.600 143.800 C 33.820 143.664,34.000 143.201,34.000 142.771 C 34.000 142.341,34.159 141.677,34.353 141.295 C 34.727 140.560,35.476 138.801,36.054 137.300 C 36.244 136.805,36.556 135.995,36.746 135.500 C 37.324 133.999,38.073 132.240,38.447 131.505 C 38.641 131.123,38.800 130.538,38.800 130.205 C 38.800 129.872,38.980 129.600,39.200 129.600 C 39.420 129.600,39.600 129.240,39.600 128.800 C 39.600 128.360,39.780 128.000,40.000 128.000 C 40.220 128.000,40.400 127.728,40.400 127.395 C 40.400 127.062,40.563 126.477,40.761 126.095 C 40.960 125.713,42.222 123.209,43.565 120.531 C 46.807 114.070,50.312 107.911,50.887 107.667 C 51.059 107.593,51.200 107.362,51.200 107.153 C 51.200 106.944,52.472 104.877,54.027 102.560 C 56.736 98.522,57.601 97.342,58.700 96.184 C 58.975 95.894,59.200 95.491,59.200 95.288 C 59.200 95.085,59.705 94.390,60.322 93.744 C 60.940 93.098,62.007 91.766,62.693 90.785 C 63.380 89.803,64.360 88.544,64.871 87.987 C 65.382 87.430,66.784 85.810,67.986 84.387 C 70.808 81.047,81.047 70.808,84.387 67.986 C 85.810 66.784,87.430 65.382,87.987 64.871 C 88.544 64.360,89.803 63.380,90.785 62.693 C 91.766 62.007,93.098 60.940,93.744 60.322 C 94.390 59.705,95.085 59.200,95.288 59.200 C 95.491 59.200,95.894 58.975,96.184 58.700 C 97.342 57.601,98.522 56.736,102.560 54.027 C 104.877 52.472,106.944 51.200,107.153 51.200 C 107.362 51.200,107.593 51.059,107.667 50.887 C 107.911 50.312,114.070 46.807,120.531 43.565 C 123.209 42.222,125.713 40.960,126.095 40.761 C 126.477 40.563,127.062 40.400,127.395 40.400 C 127.728 40.400,128.000 40.220,128.000 40.000 C 128.000 39.780,128.360 39.600,128.800 39.600 C 129.240 39.600,129.600 39.420,129.600 39.200 C 129.600 38.980,129.872 38.800,130.205 38.800 C 130.538 38.800,131.123 38.641,131.505 38.447 C 132.292 38.047,134.206 37.237,135.400 36.800 C 135.840 36.639,136.740 36.279,137.400 36.000 C 138.060 35.721,139.050 35.316,139.600 35.100 C 140.150 34.884,140.913 34.548,141.295 34.353 C 141.677 34.159,142.341 34.000,142.771 34.000 C 143.201 34.000,143.664 33.820,143.800 33.600 C 143.936 33.380,144.476 33.200,145.000 33.200 C 145.524 33.200,146.051 33.041,146.171 32.846 C 146.292 32.651,146.887 32.396,147.495 32.279 C 148.512 32.083,149.850 31.724,153.000 30.804 C 154.901 30.249,160.376 28.945,163.000 28.422 C 164.320 28.159,166.051 27.776,166.846 27.572 C 167.642 27.367,169.026 27.200,169.923 27.200 C 170.819 27.200,171.664 27.020,171.800 26.800 C 171.936 26.580,173.196 26.400,174.600 26.400 C 176.004 26.400,177.264 26.220,177.400 26.000 C 177.536 25.780,179.156 25.600,181.000 25.600 C 182.844 25.600,184.464 25.420,184.600 25.200 C 184.944 24.644,207.200 24.654,207.200 25.210 M149.400 75.600 C 149.264 75.820,147.993 76.000,146.576 76.000 C 145.125 76.000,144.000 76.175,144.000 76.400 C 144.000 76.620,143.471 76.800,142.824 76.800 C 142.177 76.800,141.536 76.980,141.400 77.200 C 141.264 77.420,140.803 77.600,140.376 77.600 C 139.949 77.600,139.600 77.746,139.600 77.925 C 139.600 78.104,138.970 78.498,138.200 78.800 C 137.430 79.102,136.800 79.496,136.800 79.675 C 136.800 79.854,136.575 80.003,136.300 80.006 C 135.667 80.015,130.000 85.706,130.000 86.334 C 130.000 86.590,129.854 86.800,129.675 86.800 C 129.496 86.800,129.102 87.430,128.800 88.200 C 128.498 88.970,128.104 89.600,127.925 89.600 C 127.746 89.600,127.600 89.949,127.600 90.376 C 127.600 90.803,127.420 91.264,127.200 91.400 C 126.980 91.536,126.800 92.177,126.800 92.824 C 126.800 93.471,126.620 94.000,126.400 94.000 C 126.176 94.000,126.000 95.107,126.000 96.520 C 126.000 97.947,125.792 99.248,125.520 99.520 C 125.147 99.893,125.147 100.107,125.520 100.480 C 125.792 100.752,126.000 102.053,126.000 103.480 C 126.000 104.893,126.176 106.000,126.400 106.000 C 126.620 106.000,126.800 106.452,126.800 107.005 C 126.800 107.558,126.980 108.368,127.200 108.805 C 129.491 113.357,130.067 114.184,132.941 117.059 C 135.816 119.933,136.643 120.509,141.195 122.800 C 141.632 123.020,142.442 123.200,142.995 123.200 C 143.548 123.200,144.000 123.380,144.000 123.600 C 144.000 123.824,145.107 124.000,146.520 124.000 C 147.947 124.000,149.248 124.208,149.520 124.480 C 149.893 124.853,150.107 124.853,150.480 124.480 C 150.751 124.209,152.048 124.000,153.456 124.000 C 154.829 124.000,156.064 123.820,156.200 123.600 C 156.336 123.380,156.799 123.200,157.229 123.200 C 157.659 123.200,158.368 123.020,158.805 122.800 C 163.357 120.509,164.184 119.933,167.059 117.059 C 169.601 114.517,170.594 113.183,171.900 110.555 C 172.106 110.140,172.483 109.397,172.738 108.905 C 172.992 108.413,173.200 107.659,173.200 107.229 C 173.200 106.799,173.380 106.336,173.600 106.200 C 173.820 106.064,174.000 104.829,174.000 103.456 C 174.000 102.048,174.209 100.751,174.480 100.480 C 174.853 100.107,174.853 99.893,174.480 99.520 C 174.208 99.248,174.000 97.947,174.000 96.520 C 174.000 95.107,173.824 94.000,173.600 94.000 C 173.380 94.000,173.200 93.548,173.200 92.995 C 173.200 92.442,172.992 91.587,172.738 91.095 C 172.483 90.603,172.106 89.860,171.900 89.445 C 170.594 86.817,169.601 85.483,167.059 82.941 C 164.184 80.067,163.357 79.491,158.805 77.200 C 158.368 76.980,157.558 76.800,157.005 76.800 C 156.452 76.800,156.000 76.620,156.000 76.400 C 156.000 76.175,154.875 76.000,153.424 76.000 C 152.007 76.000,150.736 75.820,150.600 75.600 C 150.464 75.380,150.194 75.200,150.000 75.200 C 149.806 75.200,149.536 75.380,149.400 75.600 M99.400 175.600 C 99.264 175.820,97.993 176.000,96.576 176.000 C 95.125 176.000,94.000 176.175,94.000 176.400 C 94.000 176.620,93.471 176.800,92.824 176.800 C 92.177 176.800,91.536 176.980,91.400 177.200 C 91.264 177.420,90.803 177.600,90.376 177.600 C 89.949 177.600,89.600 177.746,89.600 177.925 C 89.600 178.104,88.970 178.498,88.200 178.800 C 87.430 179.102,86.800 179.496,86.800 179.675 C 86.800 179.854,86.575 180.003,86.300 180.006 C 85.667 180.015,80.000 185.706,80.000 186.334 C 80.000 186.590,79.854 186.800,79.675 186.800 C 79.496 186.800,79.102 187.430,78.800 188.200 C 78.498 188.970,78.104 189.600,77.925 189.600 C 77.746 189.600,77.600 189.949,77.600 190.376 C 77.600 190.803,77.420 191.264,77.200 191.400 C 76.980 191.536,76.800 192.177,76.800 192.824 C 76.800 193.471,76.620 194.000,76.400 194.000 C 76.176 194.000,76.000 195.107,76.000 196.520 C 76.000 197.947,75.792 199.248,75.520 199.520 C 75.147 199.893,75.147 200.107,75.520 200.480 C 75.792 200.752,76.000 202.053,76.000 203.480 C 76.000 204.893,76.176 206.000,76.400 206.000 C 76.620 206.000,76.800 206.452,76.800 207.005 C 76.800 207.558,76.980 208.368,77.200 208.805 C 79.491 213.357,80.067 214.184,82.941 217.059 C 85.816 219.933,86.643 220.509,91.195 222.800 C 91.632 223.020,92.442 223.200,92.995 223.200 C 93.548 223.200,94.000 223.380,94.000 223.600 C 94.000 223.824,95.107 224.000,96.520 224.000 C 97.947 224.000,99.248 224.208,99.520 224.480 C 99.893 224.853,100.107 224.853,100.480 224.480 C 100.751 224.209,102.048 224.000,103.456 224.000 C 104.829 224.000,106.064 223.820,106.200 223.600 C 106.336 223.380,106.799 223.200,107.229 223.200 C 107.659 223.200,108.368 223.020,108.805 222.800 C 113.357 220.509,114.184 219.933,117.059 217.059 C 119.601 214.517,120.594 213.183,121.900 210.555 C 122.106 210.140,122.483 209.397,122.738 208.905 C 122.992 208.413,123.200 207.659,123.200 207.229 C 123.200 206.799,123.380 206.336,123.600 206.200 C 123.820 206.064,124.000 204.829,124.000 203.456 C 124.000 202.048,124.209 200.751,124.480 200.480 C 124.853 200.107,124.853 199.893,124.480 199.520 C 124.208 199.248,124.000 197.947,124.000 196.520 C 124.000 195.107,123.824 194.000,123.600 194.000 C 123.380 194.000,123.200 193.548,123.200 192.995 C 123.200 192.442,122.992 191.587,122.738 191.095 C 122.483 190.603,122.106 189.860,121.900 189.445 C 120.594 186.817,119.601 185.483,117.059 182.941 C 114.184 180.067,113.357 179.491,108.805 177.200 C 108.368 176.980,107.558 176.800,107.005 176.800 C 106.452 176.800,106.000 176.620,106.000 176.400 C 106.000 176.175,104.875 176.000,103.424 176.000 C 102.007 176.000,100.736 175.820,100.600 175.600 C 100.464 175.380,100.194 175.200,100.000 175.200 C 99.806 175.200,99.536 175.380,99.400 175.600 M210.200 200.973 C 199.104 203.630,197.283 217.619,207.312 223.164 C 208.144 223.624,209.413 224.000,210.132 224.000 C 210.851 224.000,211.660 224.220,211.930 224.490 C 212.317 224.877,212.585 224.877,213.205 224.490 C 213.636 224.220,214.622 224.000,215.395 224.000 C 216.168 224.000,216.800 223.820,216.800 223.600 C 216.800 223.380,217.068 223.200,217.395 223.200 C 218.715 223.200,223.200 218.715,223.200 217.395 C 223.200 217.068,223.380 216.800,223.600 216.800 C 223.820 216.800,224.000 216.116,224.000 215.280 C 224.000 214.444,224.220 213.540,224.490 213.270 C 224.877 212.883,224.877 212.615,224.490 211.995 C 224.220 211.564,224.000 210.674,224.000 210.018 C 224.000 206.608,219.205 201.826,215.000 201.043 C 214.340 200.920,213.440 200.746,213.000 200.657 C 212.560 200.567,211.300 200.709,210.200 200.973 M310.200 250.973 C 299.104 253.630,297.283 267.619,307.312 273.164 C 308.144 273.624,309.413 274.000,310.132 274.000 C 310.851 274.000,311.660 274.220,311.930 274.490 C 312.317 274.877,312.585 274.877,313.205 274.490 C 313.636 274.220,314.622 274.000,315.395 274.000 C 316.168 274.000,316.800 273.820,316.800 273.600 C 316.800 273.380,317.068 273.200,317.395 273.200 C 318.715 273.200,323.200 268.715,323.200 267.395 C 323.200 267.068,323.380 266.800,323.600 266.800 C 323.820 266.800,324.000 266.116,324.000 265.280 C 324.000 264.444,324.220 263.540,324.490 263.270 C 324.877 262.883,324.877 262.615,324.490 261.995 C 324.220 261.564,324.000 260.674,324.000 260.018 C 324.000 256.608,319.205 251.826,315.000 251.043 C 314.340 250.920,313.440 250.746,313.000 250.657 C 312.560 250.567,311.300 250.709,310.200 250.973 M136.800 275.600 C 136.470 275.813,135.525 275.991,134.700 275.994 C 133.875 275.997,133.200 276.180,133.200 276.400 C 133.200 276.620,132.932 276.800,132.605 276.800 C 131.285 276.800,126.800 281.285,126.800 282.605 C 126.800 282.932,126.620 283.200,126.400 283.200 C 126.180 283.200,126.000 283.842,126.000 284.626 C 126.000 285.411,125.803 286.420,125.563 286.869 C 125.247 287.460,125.247 287.807,125.563 288.123 C 125.803 288.363,126.000 289.334,126.000 290.280 C 126.000 291.226,126.180 292.000,126.400 292.000 C 126.620 292.000,126.800 292.268,126.800 292.595 C 126.800 293.786,129.839 296.807,132.185 297.947 C 142.569 302.994,152.994 292.569,147.947 282.185 C 146.807 279.839,143.786 276.800,142.595 276.800 C 142.268 276.800,142.000 276.620,142.000 276.400 C 142.000 276.180,141.201 276.000,140.224 276.000 C 139.247 276.000,138.336 275.820,138.200 275.600 C 137.893 275.103,137.569 275.103,136.800 275.600 M224.200 275.600 C 224.064 275.820,222.894 276.000,221.600 276.000 C 220.306 276.000,219.136 276.180,219.000 276.400 C 218.864 276.620,218.223 276.800,217.576 276.800 C 216.929 276.800,216.400 276.980,216.400 277.200 C 216.400 277.420,216.128 277.600,215.795 277.600 C 215.239 277.600,213.676 278.323,213.200 278.801 C 213.090 278.911,212.463 279.271,211.807 279.601 C 208.330 281.348,202.000 289.827,202.000 292.738 C 202.000 293.186,201.845 293.649,201.656 293.766 C 201.337 293.963,200.719 298.366,200.752 300.200 C 200.792 302.368,201.337 306.038,201.649 306.230 C 201.842 306.349,202.000 306.814,202.000 307.262 C 202.000 309.918,207.289 317.335,211.000 319.883 C 212.994 321.252,215.189 322.400,215.812 322.400 C 216.135 322.400,216.400 322.580,216.400 322.800 C 216.400 323.020,216.929 323.200,217.576 323.200 C 218.223 323.200,218.864 323.380,219.000 323.600 C 219.136 323.820,220.229 324.000,221.429 324.000 C 222.629 324.000,223.964 324.220,224.395 324.490 C 225.015 324.877,225.283 324.877,225.670 324.490 C 225.943 324.217,227.178 324.000,228.456 324.000 C 229.719 324.000,230.864 323.820,231.000 323.600 C 231.136 323.380,231.777 323.200,232.424 323.200 C 233.071 323.200,233.600 323.020,233.600 322.800 C 233.600 322.580,233.865 322.400,234.188 322.400 C 234.511 322.400,235.456 322.019,236.288 321.553 C 253.541 311.891,253.541 288.109,236.288 278.447 C 235.456 277.981,234.511 277.600,234.188 277.600 C 233.865 277.600,233.600 277.420,233.600 277.200 C 233.600 276.980,233.071 276.800,232.424 276.800 C 231.777 276.800,231.136 276.620,231.000 276.400 C 230.864 276.180,229.694 276.000,228.400 276.000 C 227.106 276.000,225.936 275.820,225.800 275.600 C 225.664 275.380,225.304 275.200,225.000 275.200 C 224.696 275.200,224.336 275.380,224.200 275.600 " stroke="none" fill="#000000" fill-rule="evenodd"></path><path id="path1" d="" stroke="none" fill="#080404" fill-rule="evenodd"></path><path id="path2" d="" stroke="none" fill="#080404" fill-rule="evenodd"></path><path id="path3" d="" stroke="none" fill="#080404" fill-rule="evenodd"></path><path id="path4" d="" stroke="none" fill="#080404" fill-rule="evenodd"></path></g></svg>